%
M48
M72
T01C0.0240
T02C0.0320
T03C0.0354
T04C0.0360
T05C0.0394
T06C0.0400
T07C0.0433
T08C0.0440
T09C0.1181
%
T01
X11428Y8870
X11991Y9712
X9830Y11358
X11676Y12718
X11041Y13826
X11601Y14613
X11573Y16363
X10986Y17128
X11615Y17987
X11639Y19501
X11349Y20208
X13727Y20241
X14213Y19777
X15921Y18784
X15894Y18059
X15903Y16549
X17209Y14839
X19140Y13503
X20774Y13145
X22689Y10989
X26687Y10053
X27825Y14599
X28412Y14680
X29357Y14712
X29170Y15709
X29084Y17310
X28547Y17344
X26911Y16758
X26459Y17195
X27270Y18709
X26680Y19190
X23978Y19569
X22380Y20710
X21347Y19872
X20568Y19407
X19538Y19681
X18893Y19373
X18069Y20181
X16582Y20761
X15957Y21513
X15175Y21504
X15753Y22998
X12609Y25433
X11353Y23444
X9471Y21806
X9841Y25309
X17685Y18823
X18869Y18270
X20803Y17307
X21946Y18786
X23817Y17842
X25878Y15262
X27008Y14716
X31364Y18131
X31114Y18630
X29970Y18700
X29642Y19461
X24238Y24028
X23122Y24019
X20128Y24512
X18253Y16489
X14590Y13703
X18601Y7441
X14574Y5450
X21058Y3489
X28985Y3294
X31628Y24511
T02
X18118Y31691
X17118Y31691
X16118Y31691
X15118Y31691
X14118Y31691
X13118Y31691
X12118Y31691
X11041Y6175
X10041Y6175
X12983Y6114
X13983Y6114
X16956Y6129
X17956Y6129
X19702Y3136
X19702Y2136
T03
X27306Y6217
X28306Y6217
X29306Y6217
X30306Y6217
X31306Y6217
X32306Y6217
X33306Y6217
X34306Y6217
X35269Y6217
X36269Y6217
X37269Y6217
X38269Y6217
X39269Y6217
X40269Y6217
X41269Y6217
X42269Y6217
X42269Y11217
X41269Y11217
X40269Y11217
X39269Y11217
X38269Y11217
X37269Y11217
X36269Y11217
X35269Y11217
X34306Y11217
X33306Y11217
X32306Y11217
X31306Y11217
X30306Y11217
X29306Y11217
X28306Y11217
X27306Y11217
X34497Y13715
X34497Y14715
X34497Y15715
X34497Y16715
X34497Y17715
X34497Y18715
X34497Y19715
X34497Y20715
X34247Y24075
X33247Y24075
X32247Y24075
X31247Y24075
X30247Y24075
X29247Y24075
X28247Y24075
X27247Y24075
X27247Y29075
X28247Y29075
X29247Y29075
X30247Y29075
X31247Y29075
X32247Y29075
X33247Y29075
X34247Y29075
X35208Y29075
X36208Y29075
X37208Y29075
X38208Y29075
X39208Y29075
X40208Y29075
X41208Y29075
X42208Y29075
X42208Y24075
X41208Y24075
X40208Y24075
X39208Y24075
X38208Y24075
X37208Y24075
X36208Y24075
X35208Y24075
X39497Y20715
X39497Y19715
X39497Y18715
X39497Y17715
X39497Y16715
X39497Y15715
X39497Y14715
X39497Y13715
T04
X39302Y10191
X40302Y10191
X41302Y10191
X41302Y9191
X40302Y9191
X39302Y9191
X33317Y9136
X33317Y10136
X32317Y10136
X31317Y10136
X31317Y9136
X32317Y9136
X35517Y17667
X36517Y17667
X36517Y18667
X35517Y18667
X35517Y19667
X36517Y19667
X36192Y25070
X37192Y25070
X38192Y25070
X38192Y26070
X37192Y26070
X36192Y26070
X30373Y26193
X30373Y25193
X29373Y25193
X28373Y25193
X28373Y26193
X29373Y26193
X19090Y26299
X19090Y27299
X8314Y25946
X7314Y25946
X5631Y26933
X5631Y27933
X7311Y22436
X8311Y22436
X8359Y18944
X7359Y18944
X7433Y15413
X8433Y15413
X8374Y12044
X7374Y12044
X7321Y8504
X8321Y8504
X8168Y6824
X8168Y5824
T05
X29162Y5174
X30162Y5174
X31162Y5174
X32162Y5174
X32162Y4174
X31162Y4174
X30162Y4174
X29162Y4174
X36146Y4175
X37146Y4175
X38146Y4175
X39146Y4175
X39146Y5175
X38146Y5175
X37146Y5175
X36146Y5175
X40709Y15785
X40709Y16785
X41709Y16785
X41709Y15785
X41709Y17785
X40709Y17785
X40709Y18785
X41709Y18785
X39518Y30130
X39518Y31130
X38518Y31130
X38518Y30130
X37518Y30130
X37518Y31130
X36518Y31130
X36518Y30130
X32213Y30102
X32213Y31102
X31213Y31102
X31213Y30102
X30213Y30102
X30213Y31102
X29213Y31102
X29213Y30102
X18960Y29816
X17960Y29816
X16960Y29816
X15960Y29816
X14960Y29816
X13960Y29816
X12960Y29816
X11960Y29816
X10960Y29816
X9960Y29816
X8960Y29816
X7960Y29816
X6960Y29816
X6960Y28816
X7960Y28816
X8960Y28816
X9960Y28816
X10960Y28816
X11960Y28816
X12960Y28816
X13960Y28816
X14960Y28816
X15960Y28816
X16960Y28816
X17960Y28816
X18960Y28816
T06
X20926Y27621
X20926Y26621
X20926Y25621
X25999Y25598
X25999Y26598
X25999Y27598
X5927Y22986
X5927Y21986
X5927Y20986
X5927Y19986
X5927Y18986
X5927Y17986
X5927Y16986
X5927Y15986
X5927Y14986
X5927Y13986
X5927Y12986
X5927Y11986
X20681Y9011
X20681Y8011
X20681Y7011
X26015Y6928
X26015Y7928
X26015Y8928
T07
X25582Y2446
X26960Y2446
X23455Y2431
X22077Y2431
X17347Y3194
X15969Y3194
X14591Y3194
X13213Y3194
X11835Y3194
X10457Y3194
X9079Y3194
X25314Y32547
X26692Y32547
X23342Y32567
X21964Y32567
T08
X22956Y30393
X24220Y30392
X24220Y26392
X22956Y26393
X22676Y8541
X24073Y8488
X24073Y4488
X22676Y4541
T09
X6574Y2306
X42440Y2306
X42366Y32728
X6574Y32740
M30
