G75*
%MOIN*%
%OFA0B0*%
%FSLAX24Y24*%
%IPPOS*%
%LPD*%
%AMOC8*
5,1,8,0,0,1.08239X$1,22.5*
%
%ADD10C,0.0000*%
D10*
X005748Y000392D02*
X006003Y000392D01*
X045373Y000392D01*
X045394Y000392D01*
X045394Y034250D01*
X006024Y034250D01*
X006024Y000392D01*
X045373Y000392D01*
X043243Y001939D02*
X043245Y001983D01*
X043251Y002027D01*
X043261Y002070D01*
X043274Y002112D01*
X043292Y002152D01*
X043313Y002191D01*
X043337Y002228D01*
X043364Y002263D01*
X043395Y002295D01*
X043428Y002324D01*
X043464Y002350D01*
X043502Y002372D01*
X043542Y002391D01*
X043583Y002407D01*
X043626Y002419D01*
X043669Y002427D01*
X043713Y002431D01*
X043757Y002431D01*
X043801Y002427D01*
X043844Y002419D01*
X043887Y002407D01*
X043928Y002391D01*
X043968Y002372D01*
X044006Y002350D01*
X044042Y002324D01*
X044075Y002295D01*
X044106Y002263D01*
X044133Y002228D01*
X044157Y002191D01*
X044178Y002152D01*
X044196Y002112D01*
X044209Y002070D01*
X044219Y002027D01*
X044225Y001983D01*
X044227Y001939D01*
X044225Y001895D01*
X044219Y001851D01*
X044209Y001808D01*
X044196Y001766D01*
X044178Y001726D01*
X044157Y001687D01*
X044133Y001650D01*
X044106Y001615D01*
X044075Y001583D01*
X044042Y001554D01*
X044006Y001528D01*
X043968Y001506D01*
X043928Y001487D01*
X043887Y001471D01*
X043844Y001459D01*
X043801Y001451D01*
X043757Y001447D01*
X043713Y001447D01*
X043669Y001451D01*
X043626Y001459D01*
X043583Y001471D01*
X043542Y001487D01*
X043502Y001506D01*
X043464Y001528D01*
X043428Y001554D01*
X043395Y001583D01*
X043364Y001615D01*
X043337Y001650D01*
X043313Y001687D01*
X043292Y001726D01*
X043274Y001766D01*
X043261Y001808D01*
X043251Y001851D01*
X043245Y001895D01*
X043243Y001939D01*
X007103Y001946D02*
X007105Y001990D01*
X007111Y002034D01*
X007121Y002077D01*
X007134Y002119D01*
X007152Y002159D01*
X007173Y002198D01*
X007197Y002235D01*
X007224Y002270D01*
X007255Y002302D01*
X007288Y002331D01*
X007324Y002357D01*
X007362Y002379D01*
X007402Y002398D01*
X007443Y002414D01*
X007486Y002426D01*
X007529Y002434D01*
X007573Y002438D01*
X007617Y002438D01*
X007661Y002434D01*
X007704Y002426D01*
X007747Y002414D01*
X007788Y002398D01*
X007828Y002379D01*
X007866Y002357D01*
X007902Y002331D01*
X007935Y002302D01*
X007966Y002270D01*
X007993Y002235D01*
X008017Y002198D01*
X008038Y002159D01*
X008056Y002119D01*
X008069Y002077D01*
X008079Y002034D01*
X008085Y001990D01*
X008087Y001946D01*
X008085Y001902D01*
X008079Y001858D01*
X008069Y001815D01*
X008056Y001773D01*
X008038Y001733D01*
X008017Y001694D01*
X007993Y001657D01*
X007966Y001622D01*
X007935Y001590D01*
X007902Y001561D01*
X007866Y001535D01*
X007828Y001513D01*
X007788Y001494D01*
X007747Y001478D01*
X007704Y001466D01*
X007661Y001458D01*
X007617Y001454D01*
X007573Y001454D01*
X007529Y001458D01*
X007486Y001466D01*
X007443Y001478D01*
X007402Y001494D01*
X007362Y001513D01*
X007324Y001535D01*
X007288Y001561D01*
X007255Y001590D01*
X007224Y001622D01*
X007197Y001657D01*
X007173Y001694D01*
X007152Y001733D01*
X007134Y001773D01*
X007121Y001815D01*
X007111Y001858D01*
X007105Y001902D01*
X007103Y001946D01*
X006024Y000392D02*
X006003Y000392D01*
X007113Y032658D02*
X007115Y032702D01*
X007121Y032746D01*
X007131Y032789D01*
X007144Y032831D01*
X007162Y032871D01*
X007183Y032910D01*
X007207Y032947D01*
X007234Y032982D01*
X007265Y033014D01*
X007298Y033043D01*
X007334Y033069D01*
X007372Y033091D01*
X007412Y033110D01*
X007453Y033126D01*
X007496Y033138D01*
X007539Y033146D01*
X007583Y033150D01*
X007627Y033150D01*
X007671Y033146D01*
X007714Y033138D01*
X007757Y033126D01*
X007798Y033110D01*
X007838Y033091D01*
X007876Y033069D01*
X007912Y033043D01*
X007945Y033014D01*
X007976Y032982D01*
X008003Y032947D01*
X008027Y032910D01*
X008048Y032871D01*
X008066Y032831D01*
X008079Y032789D01*
X008089Y032746D01*
X008095Y032702D01*
X008097Y032658D01*
X008095Y032614D01*
X008089Y032570D01*
X008079Y032527D01*
X008066Y032485D01*
X008048Y032445D01*
X008027Y032406D01*
X008003Y032369D01*
X007976Y032334D01*
X007945Y032302D01*
X007912Y032273D01*
X007876Y032247D01*
X007838Y032225D01*
X007798Y032206D01*
X007757Y032190D01*
X007714Y032178D01*
X007671Y032170D01*
X007627Y032166D01*
X007583Y032166D01*
X007539Y032170D01*
X007496Y032178D01*
X007453Y032190D01*
X007412Y032206D01*
X007372Y032225D01*
X007334Y032247D01*
X007298Y032273D01*
X007265Y032302D01*
X007234Y032334D01*
X007207Y032369D01*
X007183Y032406D01*
X007162Y032445D01*
X007144Y032485D01*
X007131Y032527D01*
X007121Y032570D01*
X007115Y032614D01*
X007113Y032658D01*
X043123Y032760D02*
X043125Y032804D01*
X043131Y032848D01*
X043141Y032891D01*
X043154Y032933D01*
X043172Y032973D01*
X043193Y033012D01*
X043217Y033049D01*
X043244Y033084D01*
X043275Y033116D01*
X043308Y033145D01*
X043344Y033171D01*
X043382Y033193D01*
X043422Y033212D01*
X043463Y033228D01*
X043506Y033240D01*
X043549Y033248D01*
X043593Y033252D01*
X043637Y033252D01*
X043681Y033248D01*
X043724Y033240D01*
X043767Y033228D01*
X043808Y033212D01*
X043848Y033193D01*
X043886Y033171D01*
X043922Y033145D01*
X043955Y033116D01*
X043986Y033084D01*
X044013Y033049D01*
X044037Y033012D01*
X044058Y032973D01*
X044076Y032933D01*
X044089Y032891D01*
X044099Y032848D01*
X044105Y032804D01*
X044107Y032760D01*
X044105Y032716D01*
X044099Y032672D01*
X044089Y032629D01*
X044076Y032587D01*
X044058Y032547D01*
X044037Y032508D01*
X044013Y032471D01*
X043986Y032436D01*
X043955Y032404D01*
X043922Y032375D01*
X043886Y032349D01*
X043848Y032327D01*
X043808Y032308D01*
X043767Y032292D01*
X043724Y032280D01*
X043681Y032272D01*
X043637Y032268D01*
X043593Y032268D01*
X043549Y032272D01*
X043506Y032280D01*
X043463Y032292D01*
X043422Y032308D01*
X043382Y032327D01*
X043344Y032349D01*
X043308Y032375D01*
X043275Y032404D01*
X043244Y032436D01*
X043217Y032471D01*
X043193Y032508D01*
X043172Y032547D01*
X043154Y032587D01*
X043141Y032629D01*
X043131Y032672D01*
X043125Y032716D01*
X043123Y032760D01*
M02*
