G75*
%MOIN*%
%OFA0B0*%
%FSLAX24Y24*%
%IPPOS*%
%LPD*%
%AMOC8*
5,1,8,0,0,1.08239X$1,22.5*
%
%ADD10R,0.0674X0.0674*%
%ADD11C,0.0740*%
%ADD12C,0.0674*%
%ADD13C,0.0634*%
%ADD14R,0.0671X0.0592*%
%ADD15OC8,0.0640*%
%ADD16R,0.0592X0.0671*%
%ADD17C,0.0749*%
%ADD18C,0.0640*%
%ADD19C,0.0680*%
%ADD20C,0.1064*%
%ADD21C,0.0520*%
D10*
X006960Y026188D03*
D11*
X006960Y027188D03*
X008960Y027188D03*
D12*
X007960Y027188D03*
X007960Y026188D03*
X008960Y026188D03*
X009960Y026188D03*
X009960Y027188D03*
X010960Y027188D03*
X011960Y027188D03*
X012960Y027188D03*
X013960Y027188D03*
X014960Y027188D03*
X015960Y027188D03*
X015960Y026188D03*
X014960Y026188D03*
X013960Y026188D03*
X012960Y026188D03*
X011960Y026188D03*
X010960Y026188D03*
X016960Y026188D03*
X017960Y026188D03*
X018960Y026188D03*
X018960Y027188D03*
X017960Y027188D03*
X016960Y027188D03*
D13*
X028748Y029073D03*
X029748Y029073D03*
X030748Y029073D03*
X031748Y029073D03*
X032748Y029073D03*
X033748Y029073D03*
X034748Y029073D03*
X035748Y029073D03*
X036748Y029073D03*
X037748Y029073D03*
X038748Y029073D03*
X039748Y029073D03*
X040748Y029073D03*
X041748Y029073D03*
X042748Y029073D03*
X043748Y029073D03*
X043748Y024073D03*
X042748Y024073D03*
X041748Y024073D03*
X040748Y024073D03*
X039748Y024073D03*
X038748Y024073D03*
X037748Y024073D03*
X036748Y024073D03*
X035748Y024073D03*
X034748Y024073D03*
X033748Y024073D03*
X032748Y024073D03*
X031748Y024073D03*
X030748Y024073D03*
X029748Y024073D03*
X028748Y024073D03*
X035748Y020482D03*
X035748Y019482D03*
X035748Y018482D03*
X035748Y017482D03*
X035748Y016482D03*
X035748Y015482D03*
X035748Y014482D03*
X035748Y013482D03*
X035748Y009892D03*
X034748Y009892D03*
X033748Y009892D03*
X032748Y009892D03*
X031748Y009892D03*
X030748Y009892D03*
X029748Y009892D03*
X028748Y009892D03*
X028748Y004892D03*
X029748Y004892D03*
X030748Y004892D03*
X031748Y004892D03*
X032748Y004892D03*
X033748Y004892D03*
X034748Y004892D03*
X035748Y004892D03*
X036748Y004892D03*
X037748Y004892D03*
X038748Y004892D03*
X039748Y004892D03*
X040748Y004892D03*
X041748Y004892D03*
X042748Y004892D03*
X043748Y004892D03*
X043748Y009892D03*
X042748Y009892D03*
X041748Y009892D03*
X040748Y009892D03*
X039748Y009892D03*
X038748Y009892D03*
X037748Y009892D03*
X036748Y009892D03*
X040748Y013482D03*
X040748Y014482D03*
X040748Y015482D03*
X040748Y016482D03*
X040748Y017482D03*
X040748Y018482D03*
X040748Y019482D03*
X040748Y020482D03*
D14*
X039788Y020358D03*
X039788Y019610D03*
X038195Y021805D03*
X038195Y022553D03*
X030095Y022189D03*
X030095Y021441D03*
X025018Y027735D03*
X025018Y028483D03*
X020752Y028697D03*
X020752Y027949D03*
X018662Y030038D03*
X018662Y030786D03*
X017075Y030807D03*
X017075Y030059D03*
X015823Y030071D03*
X015823Y030819D03*
X014420Y030838D03*
X014420Y030090D03*
X012963Y030073D03*
X012963Y030821D03*
X032067Y012088D03*
X032067Y011340D03*
X024713Y007122D03*
X024713Y006374D03*
X020624Y006620D03*
X020624Y007368D03*
X040105Y011411D03*
X040105Y012159D03*
X039783Y013621D03*
X039783Y014369D03*
D15*
X041355Y012142D03*
X042355Y012142D03*
X042355Y011142D03*
X041355Y011142D03*
X034166Y011122D03*
X033166Y011122D03*
X033166Y012122D03*
X034166Y012122D03*
X034520Y017545D03*
X033520Y017545D03*
X033520Y018545D03*
X034520Y018545D03*
X032295Y021416D03*
X031295Y021416D03*
X031295Y022416D03*
X032295Y022416D03*
X039248Y022876D03*
X039248Y021876D03*
X040248Y021876D03*
X040248Y022876D03*
D16*
X034368Y019658D03*
X033620Y019658D03*
X034888Y028186D03*
X035636Y028186D03*
X036829Y028168D03*
X037577Y028168D03*
X042806Y028199D03*
X043554Y028199D03*
X029372Y028187D03*
X028624Y028187D03*
X021497Y015142D03*
X020749Y015142D03*
X028896Y005891D03*
X029644Y005891D03*
X034869Y005906D03*
X035617Y005906D03*
X036796Y005927D03*
X037544Y005927D03*
X042836Y005934D03*
X043584Y005934D03*
D17*
X040815Y002431D03*
X039437Y002431D03*
X038059Y002431D03*
X036681Y002431D03*
X034315Y002431D03*
X032937Y002431D03*
X031559Y002431D03*
X030181Y002431D03*
X027437Y002431D03*
X026059Y002431D03*
X022937Y002431D03*
X021559Y002431D03*
X007500Y005392D03*
X007500Y006770D03*
X007494Y008619D03*
X007494Y009997D03*
X007511Y011808D03*
X007511Y013185D03*
X007513Y014924D03*
X007513Y016302D03*
X007501Y018050D03*
X007501Y019428D03*
X007515Y021263D03*
X007515Y022641D03*
X010619Y032159D03*
X011997Y032159D03*
X013375Y032159D03*
X014753Y032159D03*
X016131Y032159D03*
X017509Y032159D03*
X018887Y032159D03*
X021559Y031927D03*
X022937Y031927D03*
X026059Y031927D03*
X027437Y031927D03*
X030181Y031927D03*
X031559Y031927D03*
X032937Y031927D03*
X034315Y031927D03*
X036681Y031927D03*
X038059Y031927D03*
X039437Y031927D03*
X040815Y031927D03*
X043209Y019049D03*
X043209Y017671D03*
X043209Y016293D03*
X043209Y014915D03*
D18*
X009842Y015334D02*
X009282Y015334D01*
X009282Y016334D02*
X009842Y016334D01*
X009860Y018439D02*
X009300Y018439D01*
X009300Y019439D02*
X009860Y019439D01*
X009897Y021577D02*
X009337Y021577D01*
X009337Y022577D02*
X009897Y022577D01*
X009844Y013182D02*
X009284Y013182D01*
X009284Y012182D02*
X009844Y012182D01*
X009829Y009992D02*
X009269Y009992D01*
X009269Y008992D02*
X009829Y008992D01*
X009938Y006845D02*
X009378Y006845D01*
X009378Y005845D02*
X009938Y005845D01*
D19*
X021948Y006272D02*
X022548Y006272D01*
X022548Y007272D02*
X021948Y007272D01*
X021948Y005272D02*
X022548Y005272D01*
X026323Y005267D02*
X026923Y005267D01*
X026923Y006267D02*
X026323Y006267D01*
X026323Y007267D02*
X026923Y007267D01*
X026964Y026515D02*
X026364Y026515D01*
X026364Y027515D02*
X026964Y027515D01*
X026964Y028515D02*
X026364Y028515D01*
X022611Y028581D02*
X022011Y028581D01*
X022011Y027581D02*
X022611Y027581D01*
X022611Y026581D02*
X022011Y026581D01*
D20*
X007595Y001946D03*
X043735Y001939D03*
X043615Y032760D03*
X007605Y032658D03*
D21*
X012279Y029859D03*
X018885Y025418D03*
X020154Y026232D03*
X020632Y025844D03*
X020124Y026893D03*
X019299Y029040D03*
X025305Y026204D03*
X028038Y020623D03*
X026877Y019365D03*
X026469Y017098D03*
X027152Y016683D03*
X027718Y016679D03*
X029823Y016150D03*
X030353Y015860D03*
X029823Y015565D03*
X028568Y014141D03*
X027143Y014034D03*
X024967Y016191D03*
X024342Y015654D03*
X023550Y016215D03*
X023568Y014904D03*
X023777Y014174D03*
X020436Y016387D03*
X020591Y017100D03*
X018774Y016832D03*
X018464Y017702D03*
X017137Y017046D03*
X016593Y017713D03*
X017106Y018680D03*
X015799Y020332D03*
X017035Y020816D03*
X017474Y020518D03*
X014400Y020269D03*
X013885Y018915D03*
X012190Y018074D03*
X013606Y016639D03*
X016225Y016594D03*
X017249Y015942D03*
X016426Y015152D03*
X017249Y013919D03*
X016590Y013622D03*
X017044Y013140D03*
X017799Y012976D03*
X018105Y013454D03*
X019715Y015149D03*
X019204Y015694D03*
X021367Y018809D03*
X014281Y013986D03*
X013942Y012889D03*
X014183Y012144D03*
X013142Y011492D03*
X012482Y011848D03*
X013931Y008642D03*
X013740Y007228D03*
X014276Y006753D03*
X020624Y005411D03*
X024696Y005330D03*
X012136Y021193D03*
M02*
