%
M48
M72
T01C0.0240
T02C0.0354
T03C0.0360
T04C0.0394
T05C0.0400
T06C0.0433
T07C0.0984
%
T01
X13740Y7228
X14276Y6753
X13931Y8642
X13142Y11492
X12482Y11848
X13942Y12889
X14183Y12144
X14281Y13986
X16426Y15152
X17249Y15942
X16225Y16594
X17137Y17046
X16593Y17713
X17106Y18680
X18464Y17702
X18774Y16832
X19204Y15694
X19715Y15149
X20436Y16387
X20591Y17100
X21367Y18809
X23550Y16215
X24342Y15654
X24967Y16191
X26469Y17098
X27152Y16683
X27718Y16679
X29823Y16150
X30353Y15860
X29823Y15565
X28568Y14141
X27143Y14034
X23777Y14174
X23568Y14904
X26877Y19365
X28038Y20623
X25305Y26204
X20632Y25844
X20154Y26232
X20124Y26893
X18885Y25418
X19299Y29040
X12279Y29859
X12136Y21193
X14400Y20269
X15799Y20332
X17035Y20816
X17474Y20518
X13885Y18915
X12190Y18074
X13606Y16639
X17249Y13919
X16590Y13622
X17044Y13140
X17799Y12976
X18105Y13454
X20624Y5411
X24696Y5330
T02
X28748Y4892
X29748Y4892
X30748Y4892
X31748Y4892
X32748Y4892
X33748Y4892
X34748Y4892
X35748Y4892
X36748Y4892
X37748Y4892
X38748Y4892
X39748Y4892
X40748Y4892
X41748Y4892
X42748Y4892
X43748Y4892
X43748Y9892
X42748Y9892
X41748Y9892
X40748Y9892
X39748Y9892
X38748Y9892
X37748Y9892
X36748Y9892
X35748Y9892
X34748Y9892
X33748Y9892
X32748Y9892
X31748Y9892
X30748Y9892
X29748Y9892
X28748Y9892
X35748Y13482
X35748Y14482
X35748Y15482
X35748Y16482
X35748Y17482
X35748Y18482
X35748Y19482
X35748Y20482
X35748Y24073
X34748Y24073
X33748Y24073
X32748Y24073
X31748Y24073
X30748Y24073
X29748Y24073
X28748Y24073
X28748Y29073
X29748Y29073
X30748Y29073
X31748Y29073
X32748Y29073
X33748Y29073
X34748Y29073
X35748Y29073
X36748Y29073
X37748Y29073
X38748Y29073
X39748Y29073
X40748Y29073
X41748Y29073
X42748Y29073
X43748Y29073
X43748Y24073
X42748Y24073
X41748Y24073
X40748Y24073
X39748Y24073
X38748Y24073
X37748Y24073
X36748Y24073
X40748Y20482
X40748Y19482
X40748Y18482
X40748Y17482
X40748Y16482
X40748Y15482
X40748Y14482
X40748Y13482
T03
X41355Y12142
X42355Y12142
X42355Y11142
X41355Y11142
X34166Y11122
X33166Y11122
X33166Y12122
X34166Y12122
X34520Y17545
X33520Y17545
X33520Y18545
X34520Y18545
X32295Y21416
X31295Y21416
X31295Y22416
X32295Y22416
X39248Y22876
X39248Y21876
X40248Y21876
X40248Y22876
X9617Y22577
X9617Y21577
X9580Y19439
X9580Y18439
X9562Y16334
X9562Y15334
X9564Y13182
X9564Y12182
X9549Y9992
X9549Y8992
X9658Y6845
X9658Y5845
T04
X9960Y26188
X8960Y26188
X7960Y26188
X6960Y26188
X6960Y27188
X7960Y27188
X8960Y27188
X9960Y27188
X10960Y27188
X11960Y27188
X12960Y27188
X13960Y27188
X14960Y27188
X15960Y27188
X15960Y26188
X14960Y26188
X13960Y26188
X12960Y26188
X11960Y26188
X10960Y26188
X16960Y26188
X17960Y26188
X18960Y26188
X18960Y27188
X17960Y27188
X16960Y27188
T05
X22311Y27581
X22311Y28581
X22311Y26581
X26664Y26515
X26664Y27515
X26664Y28515
X26623Y7267
X26623Y6267
X26623Y5267
X22248Y5272
X22248Y6272
X22248Y7272
T06
X21559Y2431
X22937Y2431
X26059Y2431
X27437Y2431
X30181Y2431
X31559Y2431
X32937Y2431
X34315Y2431
X36681Y2431
X38059Y2431
X39437Y2431
X40815Y2431
X43209Y14915
X43209Y16293
X43209Y17671
X43209Y19049
X40815Y31927
X39437Y31927
X38059Y31927
X36681Y31927
X34315Y31927
X32937Y31927
X31559Y31927
X30181Y31927
X27437Y31927
X26059Y31927
X22937Y31927
X21559Y31927
X18887Y32159
X17509Y32159
X16131Y32159
X14753Y32159
X13375Y32159
X11997Y32159
X10619Y32159
X7515Y22641
X7515Y21263
X7501Y19428
X7501Y18050
X7513Y16302
X7513Y14924
X7511Y13185
X7511Y11808
X7494Y9997
X7494Y8619
X7500Y6770
X7500Y5392
T07
X7595Y1946
X43735Y1939
X43615Y32760
X7605Y32658
M30
