G75*
%MOIN*%
%OFA0B0*%
%FSLAX24Y24*%
%IPPOS*%
%LPD*%
%AMOC8*
5,1,8,0,0,1.08239X$1,22.5*
%
%ADD10R,0.0660X0.0190*%
%ADD11R,0.0190X0.0660*%
%ADD12R,0.0674X0.0674*%
%ADD13C,0.0740*%
%ADD14C,0.0674*%
%ADD15C,0.0634*%
%ADD16R,0.0890X0.0250*%
%ADD17OC8,0.0640*%
%ADD18C,0.0749*%
%ADD19R,0.0580X0.0300*%
%ADD20R,0.0592X0.0671*%
%ADD21R,0.0671X0.0592*%
%ADD22C,0.0640*%
%ADD23C,0.0680*%
%ADD24R,0.0178X0.0218*%
%ADD25R,0.0218X0.0178*%
%ADD26R,0.0552X0.0552*%
%ADD27R,0.0356X0.0434*%
%ADD28R,0.0600X0.0300*%
%ADD29R,0.0600X0.0280*%
%ADD30C,0.0580*%
%ADD31C,0.1064*%
%ADD32C,0.0520*%
D10*
X018123Y013974D03*
X018123Y014174D03*
X018123Y014374D03*
X018123Y014564D03*
X018123Y014764D03*
X018123Y014964D03*
X018123Y015154D03*
X018123Y015354D03*
X018123Y015554D03*
X018123Y015754D03*
X018123Y015944D03*
X018123Y016144D03*
X018123Y016344D03*
X018123Y016534D03*
X018123Y016734D03*
X018123Y016934D03*
X022623Y016934D03*
X022623Y016734D03*
X022623Y016534D03*
X022623Y016344D03*
X022623Y016144D03*
X022623Y015944D03*
X022623Y015754D03*
X022623Y015554D03*
X022623Y015354D03*
X022623Y015154D03*
X022623Y014964D03*
X022623Y014764D03*
X022623Y014564D03*
X022623Y014374D03*
X022623Y014174D03*
X022623Y013974D03*
D11*
X021853Y013204D03*
X021653Y013204D03*
X021453Y013204D03*
X021263Y013204D03*
X021063Y013204D03*
X020863Y013204D03*
X020673Y013204D03*
X020473Y013204D03*
X020273Y013204D03*
X020073Y013204D03*
X019883Y013204D03*
X019683Y013204D03*
X019483Y013204D03*
X019293Y013204D03*
X019093Y013204D03*
X018893Y013204D03*
X018893Y017704D03*
X019093Y017704D03*
X019293Y017704D03*
X019483Y017704D03*
X019683Y017704D03*
X019883Y017704D03*
X020073Y017704D03*
X020273Y017704D03*
X020473Y017704D03*
X020673Y017704D03*
X020863Y017704D03*
X021063Y017704D03*
X021263Y017704D03*
X021453Y017704D03*
X021653Y017704D03*
X021853Y017704D03*
D12*
X006960Y026188D03*
D13*
X006960Y027188D03*
X008960Y027188D03*
D14*
X007960Y027188D03*
X007960Y026188D03*
X008960Y026188D03*
X009960Y026188D03*
X009960Y027188D03*
X010960Y027188D03*
X011960Y027188D03*
X012960Y027188D03*
X013960Y027188D03*
X014960Y027188D03*
X015960Y027188D03*
X015960Y026188D03*
X014960Y026188D03*
X013960Y026188D03*
X012960Y026188D03*
X011960Y026188D03*
X010960Y026188D03*
X016960Y026188D03*
X017960Y026188D03*
X018960Y026188D03*
X018960Y027188D03*
X017960Y027188D03*
X016960Y027188D03*
D15*
X028748Y029073D03*
X029748Y029073D03*
X030748Y029073D03*
X031748Y029073D03*
X032748Y029073D03*
X033748Y029073D03*
X034748Y029073D03*
X035748Y029073D03*
X036748Y029073D03*
X037748Y029073D03*
X038748Y029073D03*
X039748Y029073D03*
X040748Y029073D03*
X041748Y029073D03*
X042748Y029073D03*
X043748Y029073D03*
X043748Y024073D03*
X042748Y024073D03*
X041748Y024073D03*
X040748Y024073D03*
X039748Y024073D03*
X038748Y024073D03*
X037748Y024073D03*
X036748Y024073D03*
X035748Y024073D03*
X034748Y024073D03*
X033748Y024073D03*
X032748Y024073D03*
X031748Y024073D03*
X030748Y024073D03*
X029748Y024073D03*
X028748Y024073D03*
X035748Y020482D03*
X035748Y019482D03*
X035748Y018482D03*
X035748Y017482D03*
X035748Y016482D03*
X035748Y015482D03*
X035748Y014482D03*
X035748Y013482D03*
X035748Y009892D03*
X034748Y009892D03*
X033748Y009892D03*
X032748Y009892D03*
X031748Y009892D03*
X030748Y009892D03*
X029748Y009892D03*
X028748Y009892D03*
X028748Y004892D03*
X029748Y004892D03*
X030748Y004892D03*
X031748Y004892D03*
X032748Y004892D03*
X033748Y004892D03*
X034748Y004892D03*
X035748Y004892D03*
X036748Y004892D03*
X037748Y004892D03*
X038748Y004892D03*
X039748Y004892D03*
X040748Y004892D03*
X041748Y004892D03*
X042748Y004892D03*
X043748Y004892D03*
X043748Y009892D03*
X042748Y009892D03*
X041748Y009892D03*
X040748Y009892D03*
X039748Y009892D03*
X038748Y009892D03*
X037748Y009892D03*
X036748Y009892D03*
X040748Y013482D03*
X040748Y014482D03*
X040748Y015482D03*
X040748Y016482D03*
X040748Y017482D03*
X040748Y018482D03*
X040748Y019482D03*
X040748Y020482D03*
D16*
X031179Y018080D03*
X031179Y017830D03*
X031179Y017570D03*
X031179Y017320D03*
X031179Y017060D03*
X031179Y016800D03*
X031179Y016550D03*
X031179Y016290D03*
X031179Y016040D03*
X031179Y015780D03*
X031179Y015520D03*
X031179Y015270D03*
X031179Y015010D03*
X031179Y014760D03*
X028479Y014760D03*
X028479Y015010D03*
X028479Y015270D03*
X028479Y015520D03*
X028479Y015780D03*
X028479Y016040D03*
X028479Y016290D03*
X028479Y016550D03*
X028479Y016800D03*
X028479Y017060D03*
X028479Y017320D03*
X028479Y017570D03*
X028479Y017830D03*
X028479Y018080D03*
D17*
X031295Y021416D03*
X032295Y021416D03*
X032295Y022416D03*
X031295Y022416D03*
X033520Y018545D03*
X034520Y018545D03*
X034520Y017545D03*
X033520Y017545D03*
X039248Y021876D03*
X039248Y022876D03*
X040248Y022876D03*
X040248Y021876D03*
X041355Y012142D03*
X042355Y012142D03*
X042355Y011142D03*
X041355Y011142D03*
X034166Y011122D03*
X033166Y011122D03*
X033166Y012122D03*
X034166Y012122D03*
D18*
X043209Y014915D03*
X043209Y016293D03*
X043209Y017671D03*
X043209Y019049D03*
X040815Y031927D03*
X039437Y031927D03*
X038059Y031927D03*
X036681Y031927D03*
X034315Y031927D03*
X032937Y031927D03*
X031559Y031927D03*
X030181Y031927D03*
X027437Y031927D03*
X026059Y031927D03*
X022937Y031927D03*
X021559Y031927D03*
X018887Y032159D03*
X017509Y032159D03*
X016131Y032159D03*
X014753Y032159D03*
X013375Y032159D03*
X011997Y032159D03*
X010619Y032159D03*
X007515Y022641D03*
X007515Y021263D03*
X007501Y019428D03*
X007501Y018050D03*
X007513Y016302D03*
X007513Y014924D03*
X007511Y013185D03*
X007511Y011808D03*
X007494Y009997D03*
X007494Y008619D03*
X007500Y006770D03*
X007500Y005392D03*
X021559Y002431D03*
X022937Y002431D03*
X026059Y002431D03*
X027437Y002431D03*
X030181Y002431D03*
X031559Y002431D03*
X032937Y002431D03*
X034315Y002431D03*
X036681Y002431D03*
X038059Y002431D03*
X039437Y002431D03*
X040815Y002431D03*
D19*
X013354Y005886D03*
X013354Y006626D03*
X012334Y006626D03*
X012334Y006256D03*
X012334Y005886D03*
X012319Y009043D03*
X012319Y009413D03*
X012319Y009783D03*
X013339Y009783D03*
X013339Y009043D03*
X013360Y012266D03*
X013360Y013006D03*
X012340Y013006D03*
X012340Y012636D03*
X012340Y012266D03*
X012338Y015408D03*
X012338Y015778D03*
X012338Y016148D03*
X013358Y016148D03*
X013358Y015408D03*
X013338Y018496D03*
X013338Y019236D03*
X012318Y019236D03*
X012318Y018866D03*
X012318Y018496D03*
X012320Y021612D03*
X012320Y021982D03*
X012320Y022352D03*
X013340Y022352D03*
X013340Y021612D03*
D20*
X014957Y019459D03*
X015705Y019459D03*
X015687Y018686D03*
X014939Y018686D03*
X014924Y017901D03*
X015673Y017901D03*
X015662Y017127D03*
X014914Y017127D03*
X014897Y016341D03*
X015646Y016341D03*
X015650Y015556D03*
X014902Y015556D03*
X014900Y014778D03*
X015648Y014778D03*
X015642Y013978D03*
X014894Y013978D03*
X014902Y013194D03*
X015650Y013194D03*
X015646Y012404D03*
X014898Y012404D03*
X014895Y011599D03*
X015643Y011599D03*
X015647Y010800D03*
X014899Y010800D03*
X014883Y006903D03*
X015631Y006903D03*
D21*
X011139Y006583D03*
X011139Y005835D03*
X011137Y008982D03*
X011137Y009730D03*
X011144Y012199D03*
X011144Y012947D03*
X011144Y015338D03*
X011144Y016086D03*
X011145Y018437D03*
X011145Y019185D03*
X011142Y021579D03*
X011142Y022327D03*
D22*
X009897Y022577D02*
X009337Y022577D01*
X009337Y021577D02*
X009897Y021577D01*
X009860Y019439D02*
X009300Y019439D01*
X009300Y018439D02*
X009860Y018439D01*
X009842Y016334D02*
X009282Y016334D01*
X009282Y015334D02*
X009842Y015334D01*
X009844Y013182D02*
X009284Y013182D01*
X009284Y012182D02*
X009844Y012182D01*
X009829Y009992D02*
X009269Y009992D01*
X009269Y008992D02*
X009829Y008992D01*
X009938Y006845D02*
X009378Y006845D01*
X009378Y005845D02*
X009938Y005845D01*
D23*
X021948Y006272D02*
X022548Y006272D01*
X022548Y007272D02*
X021948Y007272D01*
X021948Y005272D02*
X022548Y005272D01*
X026323Y005267D02*
X026923Y005267D01*
X026923Y006267D02*
X026323Y006267D01*
X026323Y007267D02*
X026923Y007267D01*
X026964Y026515D02*
X026364Y026515D01*
X026364Y027515D02*
X026964Y027515D01*
X026964Y028515D02*
X026364Y028515D01*
X022611Y028581D02*
X022011Y028581D01*
X022011Y027581D02*
X022611Y027581D01*
X022611Y026581D02*
X022011Y026581D01*
D24*
X020271Y018178D03*
X020075Y018178D03*
X019490Y018146D03*
X019293Y018146D03*
X019097Y018153D03*
X018900Y018153D03*
X018895Y012754D03*
X019092Y012754D03*
X019289Y012760D03*
X019485Y012760D03*
X019684Y012762D03*
X019881Y012762D03*
X020075Y012762D03*
X020272Y012762D03*
X020476Y012764D03*
X020672Y012764D03*
X020864Y012765D03*
X021061Y012765D03*
D25*
X023092Y015356D03*
X023092Y015553D03*
X027801Y015795D03*
X027801Y015992D03*
X017673Y016338D03*
X017673Y016535D03*
X017674Y016734D03*
X017674Y016931D03*
X017662Y015743D03*
X017662Y015546D03*
X017664Y015353D03*
X017664Y015156D03*
X017666Y014571D03*
X017666Y014374D03*
X017668Y014173D03*
X017668Y013976D03*
D26*
X011039Y030027D03*
X010212Y030027D03*
D27*
X012572Y022930D03*
X013084Y022930D03*
X013083Y019808D03*
X012571Y019808D03*
X012623Y016722D03*
X013134Y016722D03*
X013110Y013676D03*
X012599Y013676D03*
X012570Y010358D03*
X013082Y010358D03*
X013083Y007206D03*
X012571Y007206D03*
D28*
X014926Y007840D03*
X014926Y008580D03*
D29*
X015786Y008210D03*
D30*
X020693Y004840D03*
X024763Y004738D03*
X024753Y026466D03*
X020772Y026601D03*
D31*
X007595Y001946D03*
X043735Y001939D03*
X043615Y032760D03*
X007605Y032658D03*
D32*
X012279Y029859D03*
X018885Y025418D03*
X020154Y026232D03*
X020632Y025844D03*
X020124Y026893D03*
X019299Y029040D03*
X025305Y026204D03*
X028038Y020623D03*
X026877Y019365D03*
X026469Y017098D03*
X027152Y016683D03*
X027718Y016679D03*
X029823Y016150D03*
X030353Y015860D03*
X029823Y015565D03*
X028568Y014141D03*
X027143Y014034D03*
X024967Y016191D03*
X024342Y015654D03*
X023550Y016215D03*
X023568Y014904D03*
X023777Y014174D03*
X020436Y016387D03*
X020591Y017100D03*
X018774Y016832D03*
X018464Y017702D03*
X017137Y017046D03*
X016593Y017713D03*
X017106Y018680D03*
X015799Y020332D03*
X017035Y020816D03*
X017474Y020518D03*
X014400Y020269D03*
X013885Y018915D03*
X012190Y018074D03*
X013606Y016639D03*
X016225Y016594D03*
X017249Y015942D03*
X016426Y015152D03*
X017249Y013919D03*
X016590Y013622D03*
X017044Y013140D03*
X017799Y012976D03*
X018105Y013454D03*
X019715Y015149D03*
X019204Y015694D03*
X021367Y018809D03*
X014281Y013986D03*
X013942Y012889D03*
X014183Y012144D03*
X013142Y011492D03*
X012482Y011848D03*
X013931Y008642D03*
X013740Y007228D03*
X014276Y006753D03*
X020624Y005411D03*
X024696Y005330D03*
X012136Y021193D03*
M02*
