G75*
%MOIN*%
%OFA0B0*%
%FSLAX24Y24*%
%IPPOS*%
%LPD*%
%AMOC8*
5,1,8,0,0,1.08239X$1,22.5*
%
%ADD10R,0.0660X0.0190*%
%ADD11R,0.0190X0.0660*%
%ADD12R,0.0674X0.0674*%
%ADD13C,0.0740*%
%ADD14C,0.0674*%
%ADD15C,0.0634*%
%ADD16R,0.0890X0.0250*%
%ADD17R,0.0671X0.0592*%
%ADD18R,0.0592X0.0671*%
%ADD19C,0.0749*%
%ADD20R,0.0580X0.0300*%
%ADD21C,0.0640*%
%ADD22C,0.0680*%
%ADD23R,0.0552X0.0552*%
%ADD24R,0.0300X0.0600*%
%ADD25R,0.0280X0.0600*%
%ADD26C,0.1261*%
%ADD27OC8,0.0710*%
%ADD28C,0.0710*%
%ADD29OC8,0.0640*%
%ADD30OC8,0.0674*%
%ADD31C,0.0600*%
%ADD32C,0.0520*%
D10*
X018277Y016857D03*
X018277Y017057D03*
X018277Y017257D03*
X018277Y017447D03*
X018277Y017647D03*
X018277Y017847D03*
X018277Y018037D03*
X018277Y018237D03*
X018277Y018437D03*
X018277Y018637D03*
X018277Y018827D03*
X018277Y019027D03*
X018277Y019227D03*
X018277Y019417D03*
X018277Y019617D03*
X018277Y019817D03*
X022777Y019817D03*
X022777Y019617D03*
X022777Y019417D03*
X022777Y019227D03*
X022777Y019027D03*
X022777Y018827D03*
X022777Y018637D03*
X022777Y018437D03*
X022777Y018237D03*
X022777Y018037D03*
X022777Y017847D03*
X022777Y017647D03*
X022777Y017447D03*
X022777Y017257D03*
X022777Y017057D03*
X022777Y016857D03*
D11*
X022007Y016087D03*
X021807Y016087D03*
X021607Y016087D03*
X021417Y016087D03*
X021217Y016087D03*
X021017Y016087D03*
X020827Y016087D03*
X020627Y016087D03*
X020427Y016087D03*
X020227Y016087D03*
X020037Y016087D03*
X019837Y016087D03*
X019637Y016087D03*
X019447Y016087D03*
X019247Y016087D03*
X019047Y016087D03*
X019047Y020587D03*
X019247Y020587D03*
X019447Y020587D03*
X019637Y020587D03*
X019837Y020587D03*
X020037Y020587D03*
X020227Y020587D03*
X020427Y020587D03*
X020627Y020587D03*
X020827Y020587D03*
X021017Y020587D03*
X021217Y020587D03*
X021417Y020587D03*
X021607Y020587D03*
X021807Y020587D03*
X022007Y020587D03*
D12*
X006960Y028816D03*
D13*
X006960Y029816D03*
X008960Y029816D03*
X022956Y030393D03*
X024220Y030392D03*
X024220Y026392D03*
X022956Y026393D03*
X022676Y008541D03*
X024073Y008488D03*
X024073Y004488D03*
X022676Y004541D03*
D14*
X018960Y028816D03*
X017960Y028816D03*
X016960Y028816D03*
X015960Y028816D03*
X014960Y028816D03*
X013960Y028816D03*
X012960Y028816D03*
X011960Y028816D03*
X010960Y028816D03*
X009960Y028816D03*
X008960Y028816D03*
X007960Y028816D03*
X007960Y029816D03*
X009960Y029816D03*
X010960Y029816D03*
X011960Y029816D03*
X012960Y029816D03*
X013960Y029816D03*
X014960Y029816D03*
X015960Y029816D03*
X016960Y029816D03*
X017960Y029816D03*
X018960Y029816D03*
D15*
X027247Y029075D03*
X028247Y029075D03*
X029247Y029075D03*
X030247Y029075D03*
X031247Y029075D03*
X032247Y029075D03*
X033247Y029075D03*
X034247Y029075D03*
X035208Y029075D03*
X036208Y029075D03*
X037208Y029075D03*
X038208Y029075D03*
X039208Y029075D03*
X040208Y029075D03*
X041208Y029075D03*
X042208Y029075D03*
X042208Y024075D03*
X041208Y024075D03*
X040208Y024075D03*
X039208Y024075D03*
X038208Y024075D03*
X037208Y024075D03*
X036208Y024075D03*
X035208Y024075D03*
X034247Y024075D03*
X033247Y024075D03*
X032247Y024075D03*
X031247Y024075D03*
X030247Y024075D03*
X029247Y024075D03*
X028247Y024075D03*
X027247Y024075D03*
X034497Y020715D03*
X034497Y019715D03*
X034497Y018715D03*
X034497Y017715D03*
X034497Y016715D03*
X034497Y015715D03*
X034497Y014715D03*
X034497Y013715D03*
X034306Y011217D03*
X035269Y011217D03*
X036269Y011217D03*
X037269Y011217D03*
X038269Y011217D03*
X039269Y011217D03*
X040269Y011217D03*
X041269Y011217D03*
X042269Y011217D03*
X039497Y013715D03*
X039497Y014715D03*
X039497Y015715D03*
X039497Y016715D03*
X039497Y017715D03*
X039497Y018715D03*
X039497Y019715D03*
X039497Y020715D03*
X033306Y011217D03*
X032306Y011217D03*
X031306Y011217D03*
X030306Y011217D03*
X029306Y011217D03*
X028306Y011217D03*
X027306Y011217D03*
X027306Y006217D03*
X028306Y006217D03*
X029306Y006217D03*
X030306Y006217D03*
X031306Y006217D03*
X032306Y006217D03*
X033306Y006217D03*
X034306Y006217D03*
X035269Y006217D03*
X036269Y006217D03*
X037269Y006217D03*
X038269Y006217D03*
X039269Y006217D03*
X040269Y006217D03*
X041269Y006217D03*
X042269Y006217D03*
D16*
X030505Y014993D03*
X030505Y015243D03*
X030505Y015503D03*
X030505Y015753D03*
X030505Y016013D03*
X030505Y016273D03*
X030505Y016523D03*
X030505Y016783D03*
X030505Y017033D03*
X030505Y017293D03*
X030505Y017553D03*
X030505Y017803D03*
X030505Y018063D03*
X030505Y018313D03*
X027805Y018313D03*
X027805Y018063D03*
X027805Y017803D03*
X027805Y017553D03*
X027805Y017293D03*
X027805Y017033D03*
X027805Y016783D03*
X027805Y016523D03*
X027805Y016273D03*
X027805Y016013D03*
X027805Y015753D03*
X027805Y015503D03*
X027805Y015243D03*
X027805Y014993D03*
D17*
X026777Y015424D03*
X026777Y016172D03*
X021913Y014843D03*
X021913Y014095D03*
X021111Y014096D03*
X021111Y014844D03*
X020300Y014844D03*
X020300Y014096D03*
X019490Y014097D03*
X019490Y014845D03*
X018681Y014844D03*
X017879Y014843D03*
X017879Y014095D03*
X018681Y014096D03*
X022470Y010429D03*
X022470Y009680D03*
X024206Y009625D03*
X024206Y010373D03*
X030258Y010134D03*
X030258Y009386D03*
X038132Y009367D03*
X038132Y010115D03*
X038580Y013914D03*
X038580Y014662D03*
X038596Y019956D03*
X038596Y020704D03*
X039328Y025075D03*
X039328Y025823D03*
X031499Y025821D03*
X031499Y025073D03*
X024100Y025332D03*
X024100Y024584D03*
X022759Y024582D03*
X022759Y025330D03*
X020496Y022403D03*
X020496Y021655D03*
X019586Y021637D03*
X018731Y021621D03*
X018731Y022369D03*
X019586Y022385D03*
X017863Y026965D03*
X017863Y027713D03*
X017045Y027709D03*
X017045Y026961D03*
X016226Y026964D03*
X016226Y027712D03*
X010633Y031430D03*
X010633Y032178D03*
X009368Y032152D03*
X009368Y031403D03*
X015473Y006025D03*
X015473Y005277D03*
D18*
X020924Y005140D03*
X021672Y005140D03*
X025561Y005230D03*
X026310Y005230D03*
X027549Y007162D03*
X028297Y007162D03*
X033380Y007148D03*
X034128Y007148D03*
X035481Y007147D03*
X036229Y007147D03*
X041402Y007239D03*
X042150Y007239D03*
X036311Y016658D03*
X035563Y016658D03*
X024398Y018448D03*
X023650Y018448D03*
X017209Y018322D03*
X016461Y018322D03*
X016453Y016978D03*
X017201Y016978D03*
X017233Y019675D03*
X016485Y019675D03*
X012951Y019583D03*
X012203Y019583D03*
X012203Y018784D03*
X012951Y018784D03*
X012949Y017989D03*
X012201Y017989D03*
X012198Y017189D03*
X012946Y017189D03*
X012946Y016392D03*
X012198Y016392D03*
X012197Y015585D03*
X012945Y015585D03*
X012944Y014785D03*
X012196Y014785D03*
X012197Y013981D03*
X012945Y013981D03*
X012944Y013184D03*
X012196Y013184D03*
X010766Y013179D03*
X010018Y013179D03*
X008424Y013373D03*
X007676Y013373D03*
X010017Y016512D03*
X010766Y016512D03*
X008601Y016968D03*
X007853Y016968D03*
X010015Y020046D03*
X010763Y020046D03*
X012202Y020381D03*
X012950Y020381D03*
X012950Y021180D03*
X012202Y021180D03*
X012207Y021980D03*
X012955Y021980D03*
X010737Y023625D03*
X009989Y023625D03*
X008514Y023965D03*
X007765Y023965D03*
X009995Y027169D03*
X010743Y027169D03*
X008517Y027462D03*
X007769Y027462D03*
X007803Y020443D03*
X008551Y020443D03*
X014486Y013101D03*
X015234Y013101D03*
X015185Y011898D03*
X014437Y011898D03*
X010756Y009695D03*
X010008Y009695D03*
X008445Y009853D03*
X007697Y009853D03*
X027305Y028177D03*
X028053Y028177D03*
X026234Y029700D03*
X025486Y029700D03*
X021386Y029649D03*
X020638Y029649D03*
X033333Y028170D03*
X034081Y028170D03*
X035324Y028176D03*
X036072Y028176D03*
X041325Y028196D03*
X042073Y028196D03*
D19*
X026692Y032547D03*
X025314Y032547D03*
X023342Y032567D03*
X021964Y032567D03*
X017347Y003194D03*
X015969Y003194D03*
X014591Y003194D03*
X013213Y003194D03*
X011835Y003194D03*
X010457Y003194D03*
X009079Y003194D03*
X022077Y002431D03*
X023455Y002431D03*
X025582Y002446D03*
X026960Y002446D03*
D20*
X010876Y008128D03*
X010876Y008868D03*
X009856Y008868D03*
X009856Y008498D03*
X009856Y008128D03*
X009856Y011770D03*
X009856Y012140D03*
X009856Y012510D03*
X010876Y012510D03*
X010876Y011770D03*
X010873Y015106D03*
X010873Y015846D03*
X009853Y015846D03*
X009853Y015476D03*
X009853Y015106D03*
X009851Y018644D03*
X009851Y019014D03*
X009851Y019384D03*
X010871Y019384D03*
X010871Y018644D03*
X010859Y022216D03*
X010859Y022956D03*
X009839Y022956D03*
X009839Y022586D03*
X009839Y022216D03*
X009830Y025729D03*
X009830Y026099D03*
X009830Y026469D03*
X010850Y026469D03*
X010850Y025729D03*
D21*
X008314Y025666D02*
X008314Y026226D01*
X007314Y026226D02*
X007314Y025666D01*
X005911Y026933D02*
X005351Y026933D01*
X005351Y027933D02*
X005911Y027933D01*
X007311Y022716D02*
X007311Y022156D01*
X008311Y022156D02*
X008311Y022716D01*
X008359Y019224D02*
X008359Y018664D01*
X007359Y018664D02*
X007359Y019224D01*
X007433Y015693D02*
X007433Y015133D01*
X008433Y015133D02*
X008433Y015693D01*
X008374Y012324D02*
X008374Y011764D01*
X007374Y011764D02*
X007374Y012324D01*
X007321Y008784D02*
X007321Y008224D01*
X008321Y008224D02*
X008321Y008784D01*
X008448Y006824D02*
X007888Y006824D01*
X007888Y005824D02*
X008448Y005824D01*
X018810Y026299D02*
X019370Y026299D01*
X019370Y027299D02*
X018810Y027299D01*
D22*
X020626Y027621D02*
X021226Y027621D01*
X021226Y026621D02*
X020626Y026621D01*
X020626Y025621D02*
X021226Y025621D01*
X025699Y025598D02*
X026299Y025598D01*
X026299Y026598D02*
X025699Y026598D01*
X025699Y027598D02*
X026299Y027598D01*
X006227Y022986D02*
X005627Y022986D01*
X005627Y021986D02*
X006227Y021986D01*
X006227Y020986D02*
X005627Y020986D01*
X005627Y019986D02*
X006227Y019986D01*
X006227Y018986D02*
X005627Y018986D01*
X005627Y017986D02*
X006227Y017986D01*
X006227Y016986D02*
X005627Y016986D01*
X005627Y015986D02*
X006227Y015986D01*
X006227Y014986D02*
X005627Y014986D01*
X005627Y013986D02*
X006227Y013986D01*
X006227Y012986D02*
X005627Y012986D01*
X005627Y011986D02*
X006227Y011986D01*
X020381Y009011D02*
X020981Y009011D01*
X020981Y008011D02*
X020381Y008011D01*
X020381Y007011D02*
X020981Y007011D01*
X025715Y006928D02*
X026315Y006928D01*
X026315Y007928D02*
X025715Y007928D01*
X025715Y008928D02*
X026315Y008928D01*
D23*
X026352Y004430D03*
X025526Y004430D03*
X021779Y004332D03*
X020952Y004332D03*
X015472Y006787D03*
X015472Y007614D03*
X020653Y030508D03*
X021480Y030508D03*
X025592Y030564D03*
X026419Y030564D03*
D24*
X013476Y010965D03*
X012736Y010965D03*
D25*
X013106Y010105D03*
D26*
X006574Y002306D03*
X042440Y002306D03*
X042366Y032728D03*
X006574Y032740D03*
D27*
X010041Y006175D03*
X013983Y006114D03*
X017956Y006129D03*
X019702Y003136D03*
D28*
X019702Y002136D03*
X016956Y006129D03*
X012983Y006114D03*
X011041Y006175D03*
D29*
X031317Y009136D03*
X031317Y010136D03*
X032317Y010136D03*
X033317Y010136D03*
X033317Y009136D03*
X032317Y009136D03*
X039302Y009191D03*
X040302Y009191D03*
X041302Y009191D03*
X041302Y010191D03*
X040302Y010191D03*
X039302Y010191D03*
X036517Y017667D03*
X035517Y017667D03*
X035517Y018667D03*
X036517Y018667D03*
X036517Y019667D03*
X035517Y019667D03*
X036192Y025070D03*
X037192Y025070D03*
X038192Y025070D03*
X038192Y026070D03*
X037192Y026070D03*
X036192Y026070D03*
X030373Y026193D03*
X030373Y025193D03*
X029373Y025193D03*
X028373Y025193D03*
X028373Y026193D03*
X029373Y026193D03*
D30*
X029213Y030102D03*
X029213Y031102D03*
X030213Y031102D03*
X030213Y030102D03*
X031213Y030102D03*
X031213Y031102D03*
X032213Y031102D03*
X032213Y030102D03*
X036518Y030130D03*
X037518Y030130D03*
X038518Y030130D03*
X039518Y030130D03*
X039518Y031130D03*
X038518Y031130D03*
X037518Y031130D03*
X036518Y031130D03*
X040709Y018785D03*
X041709Y018785D03*
X041709Y017785D03*
X040709Y017785D03*
X040709Y016785D03*
X040709Y015785D03*
X041709Y015785D03*
X041709Y016785D03*
X039146Y005175D03*
X038146Y005175D03*
X037146Y005175D03*
X036146Y005175D03*
X036146Y004175D03*
X037146Y004175D03*
X038146Y004175D03*
X039146Y004175D03*
X032162Y004174D03*
X032162Y005174D03*
X031162Y005174D03*
X030162Y005174D03*
X029162Y005174D03*
X029162Y004174D03*
X030162Y004174D03*
X031162Y004174D03*
D31*
X018118Y031431D02*
X018118Y031951D01*
X017118Y031951D02*
X017118Y031431D01*
X016118Y031431D02*
X016118Y031951D01*
X015118Y031951D02*
X015118Y031431D01*
X014118Y031431D02*
X014118Y031951D01*
X013118Y031951D02*
X013118Y031431D01*
X012118Y031431D02*
X012118Y031951D01*
D32*
X012609Y025433D03*
X011353Y023444D03*
X009471Y021806D03*
X011349Y020208D03*
X011639Y019501D03*
X011615Y017987D03*
X010986Y017128D03*
X011573Y016363D03*
X011601Y014613D03*
X011041Y013826D03*
X011676Y012718D03*
X009830Y011358D03*
X011991Y009712D03*
X011428Y008870D03*
X014574Y005450D03*
X018601Y007441D03*
X022689Y010989D03*
X020774Y013145D03*
X019140Y013503D03*
X017209Y014839D03*
X018253Y016489D03*
X018869Y018270D03*
X018893Y019373D03*
X019538Y019681D03*
X020568Y019407D03*
X021347Y019872D03*
X021946Y018786D03*
X020803Y017307D03*
X023817Y017842D03*
X023978Y019569D03*
X022380Y020710D03*
X023122Y024019D03*
X024238Y024028D03*
X020128Y024512D03*
X015753Y022998D03*
X015957Y021513D03*
X015175Y021504D03*
X016582Y020761D03*
X018069Y020181D03*
X017685Y018823D03*
X015921Y018784D03*
X015894Y018059D03*
X015903Y016549D03*
X014590Y013703D03*
X014213Y019777D03*
X013727Y020241D03*
X009841Y025309D03*
X025878Y015262D03*
X027008Y014716D03*
X027825Y014599D03*
X028412Y014680D03*
X029357Y014712D03*
X029170Y015709D03*
X029084Y017310D03*
X028547Y017344D03*
X026911Y016758D03*
X026459Y017195D03*
X027270Y018709D03*
X026680Y019190D03*
X029642Y019461D03*
X029970Y018700D03*
X031114Y018630D03*
X031364Y018131D03*
X031628Y024511D03*
X026687Y010053D03*
X028985Y003294D03*
X021058Y003489D03*
M02*
